<svg width="252" height="157" viewBox="0 0 252 157" fill="none" xmlns="http://www.w3.org/2000/svg">
<path d="M0 0.391663V156.914H23.9543L180.738 0.118164H151.34L24.4959 126.968V0.118164L0 0.391663Z" fill="white"/>
<path d="M45.4365 0.273499V156.796H69.3908L226.18 0H196.782L69.9378 126.85V0L45.4365 0.273499Z" fill="white"/>
<path d="M161.948 156.715L120.271 104.203L137.607 86.8604L194.713 156.646L161.948 156.715Z" fill="white"/>
<path d="M219.128 156.565L144.638 71.2386L161.975 53.8955L252 156.603L219.128 156.565Z" fill="white"/>
<path d="M67.3906 156.785L162.822 156.71L150.837 141.807H82.2662L67.3906 156.785Z" fill="white"/>
<path d="M153.072 0.128814L69.8408 0.0698242L69.8301 14.7691H138.143L153.072 0.128814Z" fill="white"/>
</svg>
