<svg width="150" height="94" viewBox="0 0 150 94" fill="none" xmlns="http://www.w3.org/2000/svg">
<path d="M0 0.23311V93.4013H14.2585L107.582 0.0703125H90.0839L14.5809 75.5765V0.0703125L0 0.23311Z" fill="white"/>
<path d="M27.0459 0.162798V93.331H41.3044L134.631 0H117.133L41.63 75.5062V0L27.0459 0.162798Z" fill="white"/>
<path d="M96.3979 93.2831L71.5898 62.0259L81.9095 51.7026L115.901 93.2416L96.3979 93.2831Z" fill="white"/>
<path d="M130.433 93.194L86.0938 42.4043L96.4134 32.0811L150 93.2164L130.433 93.194Z" fill="white"/>
<path d="M40.1133 93.3243L96.9176 93.2796L89.7836 84.4087H48.9678L40.1133 93.3243Z" fill="white"/>
<path d="M91.1144 0.0771054L41.5718 0.0419922L41.5654 8.79157H82.228L91.1144 0.0771054Z" fill="white"/>
</svg>
